<?xml version="1.0" standalone="no"?>
<!DOCTYPE svg PUBLIC "-//W3C//DTD SVG 20010904//EN"
 "http://www.w3.org/TR/2001/REC-SVG-20010904/DTD/svg10.dtd">
<svg version="1.0" xmlns="http://www.w3.org/2000/svg"
 width="1600.000000pt" height="1600.000000pt" viewBox="0 0 1600.000000 1600.000000"
 preserveAspectRatio="xMidYMid meet">

<g transform="translate(0.000000,1600.000000) scale(0.100000,-0.100000)"
fill="#000000" stroke="none">
<path d="M0 8000 l0 -8000 8000 0 8000 0 0 8000 0 8000 -8000 0 -8000 0 0
-8000z m9174 3508 c13 -22 98 -288 136 -428 10 -36 37 -132 60 -215 23 -82 73
-274 111 -425 79 -310 117 -456 213 -822 23 -85 90 -311 195 -653 22 -71 48
-164 59 -205 11 -41 32 -115 46 -165 60 -201 77 -264 96 -360 12 -62 17 -110
13 -126 -13 -46 -179 -164 -448 -318 -94 -55 -497 -261 -509 -261 -2 0 -71
-30 -153 -66 -271 -121 -487 -204 -528 -204 -11 0 -66 166 -80 240 -3 19 -17
69 -31 110 -24 77 -37 123 -122 445 -72 271 -129 508 -198 815 -55 245 -88
377 -103 414 l-17 38 -105 -178 c-58 -99 -115 -195 -127 -214 -11 -19 -35 -60
-53 -90 -17 -30 -42 -71 -54 -90 -26 -41 -171 -292 -212 -367 -119 -221 -208
-378 -281 -498 -47 -77 -159 -264 -249 -415 -90 -151 -168 -282 -173 -290 -10
-16 -30 -52 -124 -234 -52 -101 -55 -111 -39 -120 12 -7 174 -11 488 -11 466
0 554 5 790 40 50 7 122 16 160 20 233 22 580 109 842 211 35 13 93 36 130 50
72 28 92 37 303 134 74 34 140 65 145 69 6 5 72 40 148 80 379 197 593 331
770 483 18 15 38 28 45 28 6 0 12 6 12 14 0 8 9 18 20 21 11 3 25 15 30 26 6
10 15 19 21 19 6 0 30 20 53 45 24 25 50 45 59 45 10 0 17 8 17 20 0 13 10 24
25 30 14 5 25 16 25 24 0 7 9 16 21 19 11 3 23 15 26 26 3 11 14 23 24 26 10
4 19 11 19 17 0 5 20 29 45 52 25 24 45 48 45 54 0 6 8 17 18 24 19 14 61 69
107 138 17 25 33 47 36 50 3 3 14 19 23 37 9 18 30 52 47 77 16 25 50 90 75
143 25 54 51 112 59 128 56 120 126 379 151 565 16 117 16 135 1 270 -39 349
-140 607 -335 860 -245 316 -482 467 -987 624 -351 110 -380 147 -77 102 574
-87 902 -199 1259 -432 384 -250 655 -558 874 -990 97 -193 130 -285 168 -470
100 -494 37 -931 -218 -1518 -64 -147 -209 -428 -229 -442 -8 -6 -12 -16 -8
-22 4 -7 2 -12 -4 -12 -6 0 -9 -4 -6 -8 3 -5 -8 -24 -25 -43 -16 -19 -29 -39
-29 -46 0 -7 -8 -17 -17 -22 -10 -6 -14 -11 -9 -11 6 0 2 -6 -7 -12 -9 -7 -17
-19 -19 -27 -2 -7 -20 -30 -40 -51 -21 -21 -40 -49 -43 -62 -3 -13 -37 -56
-75 -96 -39 -41 -70 -78 -70 -83 0 -5 -11 -15 -25 -21 -14 -6 -25 -15 -25 -21
0 -9 -58 -67 -66 -67 -3 0 -46 -42 -97 -92 -51 -51 -95 -92 -99 -90 -5 1 -8
-3 -8 -8 0 -6 -10 -10 -22 -11 -13 0 -17 -3 -10 -6 20 -8 13 -25 -8 -18 -15 5
-18 3 -14 -9 4 -11 0 -16 -14 -16 -26 0 -40 -20 -15 -21 14 0 15 -2 3 -6 -8
-3 -23 -15 -33 -27 -15 -16 -18 -17 -13 -3 9 27 -13 20 -24 -8 -6 -15 -17 -25
-30 -25 -13 0 -20 -7 -20 -19 0 -10 -9 -21 -21 -24 -11 -3 -23 -15 -26 -26 -3
-12 -14 -21 -24 -21 -11 0 -23 -8 -27 -19 -12 -30 -79 -80 -239 -175 -94 -56
-544 -274 -743 -359 -384 -165 -855 -341 -1005 -376 -194 -44 -332 -63 -605
-82 -517 -37 -1167 -28 -1565 22 -234 29 -514 90 -698 150 -31 10 -72 19 -91
19 -33 0 -36 -3 -97 -112 -66 -119 -131 -230 -184 -313 -73 -114 -225 -365
-258 -426 -20 -36 -42 -71 -49 -76 -18 -15 -463 -23 -1193 -23 l-620 0 2 22
c5 49 348 702 506 963 33 55 80 134 105 175 25 41 66 107 91 147 70 109 96
153 132 218 18 33 42 76 54 95 33 52 95 182 95 197 0 8 7 16 15 19 11 5 -7 29
-67 93 -78 83 -171 214 -238 335 -17 32 -44 79 -59 105 -194 331 -268 740
-206 1149 35 234 95 452 182 657 120 284 199 415 251 415 23 0 52 -30 52 -54
0 -12 -18 -93 -40 -181 -51 -204 -64 -321 -57 -510 9 -216 44 -348 153 -570
92 -188 164 -280 414 -519 58 -57 105 -95 108 -88 2 7 14 25 26 40 33 41 89
137 138 237 75 151 176 339 218 406 22 35 51 86 65 112 14 26 41 72 60 102 19
30 35 56 35 59 0 3 14 25 30 49 17 25 30 48 30 51 0 4 8 19 18 34 65 95 112
175 239 405 29 54 69 121 87 150 18 29 61 105 95 171 35 65 83 150 108 188 24
39 49 80 54 92 5 11 18 35 29 51 11 17 29 48 41 70 12 22 25 42 29 45 4 3 14
19 23 36 9 17 34 58 56 91 36 55 61 97 141 238 14 24 49 86 79 137 114 198
171 298 247 436 44 79 84 151 89 160 6 10 32 56 59 102 27 47 57 94 66 105 9
11 45 70 80 130 74 131 82 145 147 255 27 47 62 106 77 133 l27 47 929 0 930
0 14 -22z m-3874 -786 c74 -54 77 -162 12 -352 -71 -207 -99 -284 -122 -335
-12 -27 -28 -66 -35 -85 -118 -313 -120 -322 -120 -470 0 -113 4 -136 35 -240
28 -96 34 -131 35 -213 0 -92 -2 -100 -24 -118 -13 -10 -32 -19 -44 -19 -13 0
-74 55 -171 153 -196 197 -303 289 -456 391 -181 120 -312 183 -461 221 -90
23 -177 55 -190 71 -40 48 30 91 231 143 393 101 386 98 502 217 47 49 104
110 125 135 81 98 227 265 257 294 65 64 213 177 271 206 67 34 110 34 155 1z
m5590 -4152 c0 -5 -5 -10 -11 -10 -5 0 -7 5 -4 10 3 6 8 10 11 10 2 0 4 -4 4
-10z m-210 -560 c0 -20 5 -30 15 -30 11 0 15 -12 15 -49 0 -28 9 -69 22 -97
12 -27 29 -87 40 -134 41 -194 57 -263 64 -279 8 -19 39 -153 61 -261 8 -41
21 -95 29 -120 24 -72 65 -282 59 -298 -5 -13 -62 -14 -458 -6 -573 11 -934
11 -1209 0 -252 -10 -272 -6 -287 53 -12 43 -57 285 -67 355 -4 28 -10 43 -14
36 -4 -7 -11 15 -15 50 -4 34 -3 65 1 70 5 4 29 15 54 23 309 104 762 284
1105 439 138 63 527 256 540 269 5 5 17 9 27 9 13 0 18 -8 18 -30z"/>
</g>
</svg>
